G04 EAGLE Gerber X2 export*
%TF.Part,Single*%
%TF.FileFunction,Copper,L1,Top,Mixed*%
%TF.FilePolarity,Positive*%
%TF.GenerationSoftware,Autodesk,EAGLE,8.6.0*%
%TF.CreationDate,2018-03-12T22:46:37Z*%
G75*
%MOMM*%
%FSLAX34Y34*%
%LPD*%
%AMOC8*
5,1,8,0,0,1.08239X$1,22.5*%
G01*
%ADD10C,1.308000*%
%ADD11C,1.308000*%
%ADD12P,1.732040X8X22.500000*%
%ADD13C,0.152400*%
%ADD14C,0.756400*%


D10*
X1352360Y177800D02*
X1365440Y177800D01*
X1365440Y203200D02*
X1352360Y203200D01*
X1352360Y228600D02*
X1365440Y228600D01*
X1365440Y254000D02*
X1352360Y254000D01*
X1352360Y279400D02*
X1365440Y279400D01*
X1365440Y304800D02*
X1352360Y304800D01*
X1352360Y330200D02*
X1365440Y330200D01*
X1365440Y355600D02*
X1352360Y355600D01*
X1352360Y381000D02*
X1365440Y381000D01*
X1365440Y406400D02*
X1352360Y406400D01*
X1352360Y431800D02*
X1365440Y431800D01*
X1365440Y457200D02*
X1352360Y457200D01*
X1213040Y177800D02*
X1199960Y177800D01*
X1199960Y203200D02*
X1213040Y203200D01*
X1213040Y228600D02*
X1199960Y228600D01*
X1199960Y381000D02*
X1213040Y381000D01*
X1213040Y406400D02*
X1199960Y406400D01*
X1199960Y431800D02*
X1213040Y431800D01*
X1213040Y457200D02*
X1199960Y457200D01*
X1199960Y533400D02*
X1213040Y533400D01*
X1352360Y533400D02*
X1365440Y533400D01*
X1365440Y508000D02*
X1352360Y508000D01*
X1352360Y482600D02*
X1365440Y482600D01*
X1213040Y508000D02*
X1199960Y508000D01*
X1199960Y482600D02*
X1213040Y482600D01*
X1213040Y254000D02*
X1199960Y254000D01*
D11*
X1257300Y190500D03*
X1282700Y190500D03*
X1308100Y190500D03*
D10*
X1213040Y355600D02*
X1199960Y355600D01*
X1199960Y330200D02*
X1213040Y330200D01*
X1213040Y304800D02*
X1199960Y304800D01*
X1199960Y279400D02*
X1213040Y279400D01*
D11*
X1257300Y165100D03*
X1282700Y165100D03*
X1308100Y165100D03*
D12*
X1143000Y177800D03*
X1143000Y203200D03*
X1143000Y228600D03*
X1143000Y254000D03*
X1143000Y279400D03*
X1143000Y304800D03*
X1143000Y330200D03*
X1143000Y355600D03*
X1143000Y381000D03*
X1143000Y406400D03*
X1143000Y431800D03*
X1143000Y457200D03*
X1143000Y482600D03*
X1143000Y508000D03*
X1409700Y508000D03*
X1409700Y482600D03*
X1409700Y457200D03*
X1409700Y431800D03*
X1409700Y406400D03*
X1409700Y381000D03*
X1409700Y355600D03*
X1409700Y330200D03*
X1409700Y304800D03*
X1409700Y279400D03*
X1409700Y228600D03*
X1409700Y177800D03*
X1409700Y203200D03*
X1409700Y254000D03*
X1460500Y508000D03*
X1460500Y482600D03*
X1460500Y457200D03*
X1460500Y431800D03*
X1460500Y406400D03*
X1460500Y381000D03*
X1460500Y355600D03*
X1460500Y330200D03*
X1460500Y304800D03*
X1460500Y279400D03*
X1460500Y228600D03*
X1460500Y177800D03*
X1460500Y203200D03*
X1460500Y254000D03*
X1460500Y533400D03*
X1409700Y533400D03*
X1092200Y508000D03*
X1092200Y482600D03*
X1092200Y457200D03*
X1092200Y431800D03*
X1092200Y406400D03*
X1092200Y381000D03*
X1092200Y355600D03*
X1092200Y330200D03*
X1092200Y304800D03*
X1092200Y279400D03*
X1092200Y228600D03*
X1092200Y177800D03*
X1092200Y203200D03*
X1092200Y254000D03*
D13*
X1359408Y483108D02*
X1409700Y483108D01*
X1359408Y483108D02*
X1358900Y482600D01*
X1409700Y483108D02*
X1459992Y483108D01*
X1460500Y482600D01*
X1409700Y482600D02*
X1409700Y483108D01*
X1409700Y457200D02*
X1358900Y457200D01*
X1409700Y457200D02*
X1460500Y457200D01*
X1409700Y432816D02*
X1359408Y432816D01*
X1358900Y431800D01*
X1409700Y432816D02*
X1459992Y432816D01*
X1460500Y431800D01*
X1409700Y431800D02*
X1409700Y432816D01*
X1409700Y406908D02*
X1359408Y406908D01*
X1358900Y406400D01*
X1409700Y406908D02*
X1459992Y406908D01*
X1460500Y406400D01*
X1409700Y406400D02*
X1409700Y406908D01*
X1409700Y381000D02*
X1358900Y381000D01*
X1409700Y381000D02*
X1460500Y381000D01*
X1409700Y356616D02*
X1359408Y356616D01*
X1358900Y355600D01*
X1409700Y356616D02*
X1459992Y356616D01*
X1460500Y355600D01*
X1409700Y355600D02*
X1409700Y356616D01*
X1409700Y330708D02*
X1359408Y330708D01*
X1358900Y330200D01*
X1409700Y330708D02*
X1459992Y330708D01*
X1460500Y330200D01*
X1409700Y330200D02*
X1409700Y330708D01*
X1409700Y304800D02*
X1358900Y304800D01*
X1409700Y304800D02*
X1460500Y304800D01*
X1409700Y280416D02*
X1359408Y280416D01*
X1358900Y279400D01*
X1409700Y280416D02*
X1459992Y280416D01*
X1460500Y279400D01*
X1409700Y279400D02*
X1409700Y280416D01*
X1409700Y228600D02*
X1358900Y228600D01*
X1409700Y228600D02*
X1460500Y228600D01*
X1409700Y178308D02*
X1359408Y178308D01*
X1358900Y177800D01*
X1409700Y178308D02*
X1459992Y178308D01*
X1460500Y177800D01*
X1409700Y177800D02*
X1409700Y178308D01*
X1409700Y204216D02*
X1359408Y204216D01*
X1358900Y203200D01*
X1409700Y204216D02*
X1459992Y204216D01*
X1460500Y203200D01*
X1409700Y203200D02*
X1409700Y204216D01*
X1409700Y254508D02*
X1359408Y254508D01*
X1358900Y254000D01*
X1409700Y254508D02*
X1459992Y254508D01*
X1460500Y254000D01*
X1409700Y254000D02*
X1409700Y254508D01*
X1409700Y509016D02*
X1359408Y509016D01*
X1358900Y508000D01*
X1409700Y509016D02*
X1459992Y509016D01*
X1460500Y508000D01*
X1409700Y508000D02*
X1409700Y509016D01*
X1205484Y509016D02*
X1143000Y509016D01*
X1205484Y509016D02*
X1206500Y508000D01*
X1143000Y509016D02*
X1092708Y509016D01*
X1092200Y508000D01*
X1143000Y508000D02*
X1143000Y509016D01*
X1143000Y483108D02*
X1205484Y483108D01*
X1206500Y482600D01*
X1143000Y483108D02*
X1092708Y483108D01*
X1092200Y482600D01*
X1143000Y482600D02*
X1143000Y483108D01*
X1143000Y457200D02*
X1206500Y457200D01*
X1143000Y457200D02*
X1092200Y457200D01*
X1143000Y432816D02*
X1205484Y432816D01*
X1206500Y431800D01*
X1143000Y432816D02*
X1092708Y432816D01*
X1092200Y431800D01*
X1143000Y431800D02*
X1143000Y432816D01*
X1143000Y406908D02*
X1205484Y406908D01*
X1206500Y406400D01*
X1143000Y406908D02*
X1092708Y406908D01*
X1092200Y406400D01*
X1143000Y406400D02*
X1143000Y406908D01*
X1143000Y381000D02*
X1206500Y381000D01*
X1143000Y381000D02*
X1092200Y381000D01*
X1143000Y356616D02*
X1205484Y356616D01*
X1206500Y355600D01*
X1143000Y356616D02*
X1092708Y356616D01*
X1092200Y355600D01*
X1143000Y355600D02*
X1143000Y356616D01*
X1143000Y330708D02*
X1205484Y330708D01*
X1206500Y330200D01*
X1143000Y330708D02*
X1092708Y330708D01*
X1092200Y330200D01*
X1143000Y330200D02*
X1143000Y330708D01*
X1143000Y304800D02*
X1206500Y304800D01*
X1143000Y304800D02*
X1092200Y304800D01*
X1143000Y280416D02*
X1205484Y280416D01*
X1206500Y279400D01*
X1143000Y280416D02*
X1092708Y280416D01*
X1092200Y279400D01*
X1143000Y279400D02*
X1143000Y280416D01*
X1143000Y254508D02*
X1205484Y254508D01*
X1206500Y254000D01*
X1143000Y254508D02*
X1092708Y254508D01*
X1092200Y254000D01*
X1143000Y254000D02*
X1143000Y254508D01*
X1143000Y228600D02*
X1206500Y228600D01*
X1143000Y228600D02*
X1092200Y228600D01*
X1143000Y204216D02*
X1205484Y204216D01*
X1206500Y203200D01*
X1143000Y204216D02*
X1092708Y204216D01*
X1092200Y203200D01*
X1143000Y203200D02*
X1143000Y204216D01*
X1143000Y178308D02*
X1205484Y178308D01*
X1206500Y177800D01*
X1143000Y178308D02*
X1092708Y178308D01*
X1092200Y177800D01*
X1143000Y177800D02*
X1143000Y178308D01*
X1358900Y533400D02*
X1409700Y533400D01*
X1460500Y533400D01*
D14*
X1143000Y533400D03*
M02*
